<svg width="120" height="52" viewBox="0 0 120 52" fill="none" xmlns="http://www.w3.org/2000/svg">
<path d="M10.4044 0.140625H36.097C53.1326 0.140625 61.3009 11.161 61.3009 22.842C61.3009 42.2399 47.4757 51.864 29.1164 51.864H0L10.4044 0.140625ZM23.178 38.8583H28.5535C36.3723 38.8583 39.5146 30.5556 39.5146 22.6207C39.5146 16.3034 37.9094 13.1431 32.1845 13.1431H28.2751L23.178 38.8583Z" fill="#0A0911"/>
<path d="M120 22.3466C120 39.2124 109.45 52 88.4837 52C69.1872 52 62.8438 41.2498 62.8438 30.0049C62.8438 15.3914 71.5904 0 93.7602 0C112.788 0.00325468 120 11.2449 120 22.3466ZM83.6093 30.9911C83.6093 35.2775 84.7444 39.4239 89.2848 39.4239C97.0974 39.4239 99.3676 26.5647 99.3676 19.821C99.3676 15.1831 97.7655 12.0195 93.4911 12.0195C86.2136 12.0195 83.6093 24.7388 83.6093 30.9911Z" fill="#0A0911"/>
</svg>
