<svg width="120" height="66" viewBox="0 0 120 66" fill="none" xmlns="http://www.w3.org/2000/svg">
<path d="M10.4044 0.140625H36.097C53.1326 0.140625 61.3009 10.8347 61.3009 22.17C61.3009 40.9936 47.4757 50.3328 29.1164 50.3328H0L10.4044 0.140625ZM23.178 37.7121H28.5535C36.3723 37.7121 39.5146 29.6552 39.5146 21.9552C39.5146 15.8249 37.9094 12.7582 32.1845 12.7582H28.2751L23.178 37.7121Z" fill="black"/>
<path d="M120 21.6851C120 38.0516 109.45 50.4606 88.4837 50.4606C69.1872 50.4606 62.8438 40.0287 62.8438 29.1166C62.8438 14.9357 71.5904 0 93.7602 0C112.788 0.00315833 120 10.912 120 21.6851ZM83.6093 30.0736C83.6093 34.2331 84.7444 38.2569 89.2848 38.2569C97.0974 38.2569 99.3676 25.7783 99.3676 19.2342C99.3676 14.7336 97.7655 11.6637 93.4911 11.6637C86.2136 11.6637 83.6093 24.0065 83.6093 30.0736Z" fill="black"/>
<path d="M6.25405 58.2119C6.78601 58.4709 7.19425 58.8372 7.4757 59.3141C7.75714 59.791 7.89941 60.3595 7.89941 61.0132C7.89941 61.3069 7.87466 61.5912 7.82209 61.8691C7.686 62.6776 7.39219 63.385 6.94374 63.9882C6.49529 64.5914 5.92622 65.062 5.24272 65.3905C4.55612 65.7221 3.7953 65.8863 2.95716 65.8863H0.195312L1.59943 57.8203H4.36127C5.09117 57.8266 5.72209 57.953 6.25405 58.2119ZM5.18086 63.8556C5.71282 63.3787 6.05611 62.7155 6.20457 61.8691C6.24168 61.6133 6.26333 61.3954 6.26333 61.209C6.26333 60.5616 6.07467 60.0626 5.70354 59.7057C5.32931 59.352 4.78498 59.1752 4.06746 59.1752H2.96025L2.03242 64.5725H3.13963C3.96849 64.5725 4.6489 64.3356 5.18086 63.8556Z" fill="black"/>
<path d="M9.69431 65.6581C9.28297 65.4339 8.96442 65.1181 8.73864 64.7107C8.51287 64.3033 8.39844 63.8327 8.39844 63.3021C8.39844 62.5789 8.56545 61.9188 8.90256 61.3188C9.23658 60.7219 9.6974 60.2513 10.2819 59.9039C10.8665 59.5597 11.5159 59.3828 12.2335 59.3828C12.7685 59.3828 13.2448 59.4965 13.6654 59.7239C14.083 59.9513 14.4077 60.2703 14.6397 60.6777C14.8685 61.0882 14.9829 61.5556 14.9829 62.0862C14.9829 62.8189 14.8128 63.4821 14.4726 64.0727C14.1355 64.6665 13.6685 65.1339 13.0747 65.475C12.4809 65.8192 11.8283 65.9897 11.1108 65.9897C10.5788 65.9929 10.1056 65.8823 9.69431 65.6581ZM12.3603 64.2717C12.6696 64.0475 12.9108 63.7506 13.084 63.3811C13.2572 63.0116 13.3438 62.6231 13.3438 62.2157C13.3438 61.7546 13.217 61.3977 12.9634 61.1482C12.7098 60.8987 12.3912 60.7724 12.0077 60.7724C11.6242 60.7724 11.2809 60.883 10.984 61.1072C10.6871 61.3314 10.452 61.6283 10.2881 62.0041C10.1211 62.3768 10.0407 62.7715 10.0407 63.1884C10.0407 63.6432 10.1582 63.9938 10.3964 64.2401C10.6345 64.4864 10.9438 64.6096 11.3304 64.6096C11.7077 64.6064 12.051 64.4959 12.3603 64.2717Z" fill="black"/>
<path d="M21.658 59.9322C22.0323 60.2891 22.2178 60.8007 22.2178 61.4639C22.2178 61.7103 22.1993 61.9345 22.1591 62.1335L21.5034 65.8885H19.9323L20.5415 62.3545C20.5632 62.2156 20.5756 62.0798 20.5756 61.9503C20.5756 61.565 20.4766 61.2744 20.2756 61.0723C20.0745 60.8733 19.79 60.7723 19.422 60.7723C19.0013 60.7723 18.6395 60.9018 18.3426 61.1607C18.0457 61.4197 17.8477 61.7892 17.7488 62.2756L17.1271 65.8917H15.5312L16.6416 59.4901H18.2374L18.1013 60.2765C18.358 60.008 18.6642 59.7933 19.0168 59.6353C19.3694 59.4774 19.7405 59.3985 20.124 59.3985C20.7735 59.3953 21.2838 59.5753 21.658 59.9322Z" fill="black"/>
<path d="M24.8958 57.8281H26.5597L24.8401 60.74H23.7422L24.8958 57.8281Z" fill="black"/>
<path d="M28.3155 63.9209C28.3062 63.9683 28.3031 64.0283 28.3031 64.1072C28.3031 64.262 28.3464 64.3725 28.433 64.4357C28.5196 64.502 28.6649 64.5336 28.8691 64.5336H29.6144L29.3763 65.8979H28.368C27.2361 65.8979 26.6701 65.4179 26.6701 64.4547C26.6701 64.2683 26.6856 64.0883 26.7165 63.9114L27.2485 60.8259H26.5L26.7258 59.4963H27.4835L27.7557 57.9141H29.3515L29.0794 59.4963H30.4711L30.2453 60.8259H28.8412L28.3155 63.9209Z" fill="black"/>
<path d="M39.5483 57.8281L38.5741 63.4907C38.438 64.2771 38.1102 64.8866 37.5906 65.3225C37.071 65.7583 36.437 65.9762 35.6916 65.9762C35.0267 65.9762 34.504 65.8057 34.1174 65.4614C33.7339 65.1204 33.5391 64.634 33.5391 64.0118C33.5391 63.8413 33.5576 63.6518 33.5978 63.4339H35.1937C35.1782 63.5128 35.172 63.6139 35.172 63.7465C35.172 64.2708 35.4226 64.5329 35.9205 64.5329C36.2081 64.5329 36.4401 64.4413 36.6226 64.255C36.805 64.0687 36.9256 63.816 36.9844 63.4939L37.9586 57.8313H39.5483V57.8281Z" fill="black"/>
<path d="M47.021 59.4844L45.9107 65.886H44.3272L44.4633 65.0775C44.2221 65.3554 43.9221 65.5733 43.5695 65.7312C43.2138 65.8892 42.8396 65.9681 42.4499 65.9681C41.8004 65.9681 41.2901 65.7881 40.9097 65.4312C40.5324 65.0744 40.3438 64.5627 40.3438 63.8995C40.3438 63.6532 40.3623 63.4353 40.3994 63.2395L41.0458 59.4844H42.6293L42.0169 63.0089C41.9953 63.1479 41.9829 63.2805 41.9829 63.4131C41.9829 63.789 42.085 64.0827 42.2891 64.2848C42.4932 64.4901 42.7778 64.5911 43.1489 64.5911C43.5788 64.5911 43.9437 64.4553 44.2468 64.1806C44.5499 63.9058 44.7417 63.5174 44.8252 63.0089L45.4375 59.4844H47.021Z" fill="black"/>
<path d="M48.6796 65.756C48.3054 65.5981 48.0116 65.377 47.7982 65.096C47.5848 64.8149 47.4766 64.4928 47.4766 64.1296C47.4766 64.0759 47.4858 63.9874 47.4982 63.8643H49.0384C49.0168 64.1359 49.0972 64.3506 49.2765 64.518C49.4559 64.6822 49.7126 64.7675 50.0467 64.7675C50.3497 64.7675 50.5972 64.7107 50.7982 64.6001C50.9992 64.4896 51.0982 64.3254 51.0982 64.1075C51.0982 63.9148 51.0054 63.7632 50.8198 63.6464C50.6343 63.5295 50.3436 63.4 49.9446 63.2516C49.5425 63.1063 49.2116 62.9642 48.9487 62.8252C48.6858 62.6863 48.4601 62.4936 48.2714 62.2473C48.0827 62.0009 47.9869 61.6883 47.9869 61.3125C47.9869 60.9366 48.0951 60.5987 48.3085 60.3082C48.5219 60.0145 48.825 59.7871 49.2085 59.626C49.592 59.4649 50.0343 59.3828 50.5322 59.3828C51.0085 59.3828 51.426 59.4649 51.7879 59.626C52.1497 59.7871 52.4312 60.0144 52.6322 60.3018C52.8301 60.5892 52.9322 60.9208 52.9322 61.2904C52.9322 61.3819 52.9291 61.4514 52.9229 61.4988H51.4508C51.4724 61.2304 51.3982 61.0156 51.225 60.8514C51.0518 60.6903 50.7982 60.6082 50.4673 60.6082C50.1951 60.6082 49.9724 60.6682 49.7992 60.7882C49.626 60.9082 49.5394 61.0693 49.5394 61.2682C49.5394 61.4704 49.6384 61.6314 49.8333 61.7609C50.0281 61.8872 50.3312 62.0294 50.7394 62.181C51.1477 62.342 51.4724 62.4905 51.7167 62.6263C51.9611 62.7589 52.1745 62.9452 52.357 63.1789C52.5394 63.4127 52.6291 63.7095 52.6291 64.0632C52.6291 64.458 52.5116 64.7991 52.2796 65.0928C52.0446 65.3865 51.726 65.6076 51.3178 65.7623C50.9095 65.9171 50.4487 65.9929 49.9384 65.9929C49.4714 65.9929 49.0539 65.9139 48.6796 65.756Z" fill="black"/>
<path d="M55.8389 63.9209C55.8296 63.9683 55.8265 64.0283 55.8265 64.1072C55.8265 64.262 55.8698 64.3725 55.9564 64.4357C56.043 64.502 56.1884 64.5336 56.3925 64.5336H57.1379L56.8997 65.8979H55.8915C54.7595 65.8979 54.1935 65.4179 54.1935 64.4547C54.1935 64.2683 54.209 64.0883 54.2399 63.9114L54.7719 60.8259H54.0234L54.2492 59.4963H55.0069L55.2791 57.9141H56.875L56.6028 59.4963H57.9946L57.7688 60.8259H56.3647L55.8389 63.9209Z" fill="black"/>
<path d="M67.1212 58.2119C67.6532 58.4709 68.0614 58.8372 68.3429 59.3141C68.6243 59.791 68.7666 60.3595 68.7666 61.0132C68.7666 61.3069 68.7418 61.5912 68.6893 61.8691C68.5532 62.6776 68.2594 63.385 67.8109 63.9882C67.3625 64.5914 66.7934 65.062 66.1099 65.3905C65.4233 65.7221 64.6625 65.8863 63.8243 65.8863H61.0625L62.4666 57.8203H65.2285C65.9584 57.8266 66.5893 57.953 67.1212 58.2119ZM66.045 63.8556C66.5769 63.3787 66.9202 62.7155 67.0687 61.8691C67.1058 61.6133 67.1274 61.3954 67.1274 61.209C67.1274 60.5616 66.9388 60.0626 66.5676 59.7057C66.1934 59.352 65.6491 59.1752 64.9316 59.1752H63.8243L62.8965 64.5725H64.0037C64.8326 64.5725 65.513 64.3356 66.045 63.8556Z" fill="black"/>
<path d="M72.6436 59.7237C73.0054 59.5058 73.3982 59.3984 73.8188 59.3984L73.525 61.0975H73.1075C72.6405 61.0975 72.2632 61.2018 71.9817 61.4102C71.6972 61.6186 71.4931 61.9724 71.3632 62.4745L70.7756 65.8948H69.1797L70.29 59.4932H71.8859L71.6941 60.6238C71.9632 60.2385 72.2817 59.9385 72.6436 59.7237Z" fill="black"/>
<path d="M79.5205 60.0665C79.9875 60.5181 80.2225 61.1245 80.2225 61.8856C80.2225 62.132 80.204 62.353 80.1638 62.5457C80.1174 62.7762 80.071 62.9784 80.0184 63.1457H75.4349C75.4256 63.1994 75.4225 63.2784 75.4225 63.3763C75.4225 63.7774 75.537 64.09 75.7689 64.3174C75.9978 64.5448 76.3009 64.6585 76.6782 64.6585C76.9937 64.6585 77.2689 64.589 77.4978 64.4469C77.7266 64.3048 77.9153 64.1184 78.0576 63.8847H79.7648C79.4864 64.5006 79.0534 65.009 78.4689 65.4038C77.8844 65.8018 77.2225 65.9976 76.4833 65.9976C75.6854 65.9976 75.0421 65.767 74.5596 65.3059C74.0772 64.8448 73.8359 64.2164 73.8359 63.4237C73.8359 63.1931 73.8576 62.9499 73.904 62.6941C74.0184 62.0309 74.2504 61.4498 74.5999 60.9508C74.9493 60.4486 75.3854 60.0633 75.905 59.7949C76.4246 59.5265 76.9968 59.3907 77.6122 59.3907C78.4194 59.3875 79.0534 59.6149 79.5205 60.0665ZM78.6174 61.8951C78.6174 61.5256 78.4998 61.235 78.2648 61.0298C78.0297 60.8213 77.7266 60.7171 77.3493 60.7171C76.9473 60.7171 76.5916 60.8466 76.273 61.1055C75.9545 61.3645 75.7318 61.7151 75.605 62.1635H78.5926C78.6081 62.0372 78.6174 61.9488 78.6174 61.8951Z" fill="black"/>
<path d="M81.5595 60.943C81.8935 60.4408 82.3048 60.0555 82.7873 59.7871C83.2698 59.5186 83.7801 59.3828 84.3151 59.3828C84.7821 59.3828 85.178 59.4776 85.4966 59.6734C85.8182 59.866 86.0533 60.1092 86.2048 60.4029L86.3626 59.4902H87.9584L86.8512 65.8918H85.2553L85.4255 64.957C85.178 65.257 84.8533 65.5065 84.4574 65.7023C84.0615 65.8981 83.6286 65.996 83.1615 65.996C82.7007 65.996 82.2925 65.8918 81.9399 65.6771C81.5842 65.4655 81.309 65.1654 81.1141 64.777C80.9162 64.3885 80.8203 63.9369 80.8203 63.419C80.8203 63.179 80.842 62.9295 80.8884 62.6673C80.9966 62.0167 81.2224 61.4451 81.5595 60.943ZM85.8522 62.2504C85.8522 61.7957 85.7224 61.442 85.4626 61.1861C85.2028 60.9303 84.8749 60.804 84.4852 60.804C84.1914 60.804 83.9069 60.8766 83.6316 61.0219C83.3564 61.1672 83.1151 61.3819 82.9141 61.663C82.71 61.9441 82.5739 62.2789 82.509 62.661C82.4873 62.8063 82.4749 62.9452 82.4749 63.0779C82.4749 63.539 82.6048 63.9022 82.8615 64.1706C83.1182 64.4359 83.443 64.5685 83.8358 64.5685C84.1296 64.5685 84.4172 64.4928 84.6956 64.3443C84.9739 64.1927 85.2151 63.978 85.4131 63.6906C85.6141 63.4063 85.7471 63.0684 85.8151 62.6863C85.8368 62.4873 85.8522 62.342 85.8522 62.2504Z" fill="black"/>
<path d="M98.8908 59.9416C99.2773 60.3017 99.4691 60.8165 99.4691 61.4765C99.4691 61.7229 99.4505 61.9439 99.4134 62.1366L98.7578 65.8917H97.1866L97.7959 62.3577C97.8176 62.2187 97.8299 62.0829 97.8299 61.9534C97.8299 61.5839 97.731 61.2997 97.5299 61.1039C97.332 60.908 97.0444 60.8101 96.6763 60.8101C96.2402 60.8101 95.8691 60.9428 95.5691 61.2081C95.266 61.4734 95.0774 61.8555 95.0031 62.3577V62.345L94.3815 65.8917H92.8104L93.4196 62.3577C93.4413 62.2187 93.4537 62.0861 93.4537 61.9629C93.4537 61.5871 93.3516 61.2997 93.1475 61.1007C92.9434 60.9049 92.6588 60.807 92.2877 60.807C91.8733 60.807 91.5176 60.9333 91.2176 61.1828C90.9207 61.4323 90.7258 61.7892 90.6361 62.2503L90.0021 65.8917H88.4062L89.5166 59.49H91.1124L90.9764 60.2511C91.2269 59.989 91.5238 59.7806 91.8702 59.629C92.2165 59.4742 92.5846 59.3984 92.9681 59.3984C93.4598 59.3984 93.8774 59.5058 94.2238 59.7174C94.5702 59.929 94.8176 60.2322 94.9598 60.6238C95.2227 60.2543 95.5691 59.9574 95.9959 59.7332C96.4227 59.509 96.865 59.3984 97.3258 59.3984C97.9815 59.3984 98.5072 59.5785 98.8908 59.9416Z" fill="black"/>
<path d="M100.351 65.752C100.199 65.6067 100.125 65.4204 100.125 65.1993C100.125 64.8898 100.239 64.6277 100.471 64.4066C100.7 64.1887 100.972 64.0781 101.282 64.0781C101.529 64.0781 101.73 64.1476 101.876 64.2897C102.021 64.4319 102.095 64.6182 102.095 64.8519C102.095 65.1614 101.981 65.4235 101.755 65.6446C101.529 65.8657 101.26 65.973 100.951 65.973C100.703 65.973 100.502 65.9004 100.351 65.752Z" fill="black"/>
<path d="M109.262 58.2119C109.794 58.4709 110.202 58.8372 110.484 59.3141C110.765 59.791 110.907 60.3595 110.907 61.0132C110.907 61.3069 110.882 61.5912 110.83 61.8691C110.694 62.6776 110.4 63.385 109.952 63.9882C109.503 64.5914 108.934 65.062 108.251 65.3905C107.564 65.7221 106.803 65.8863 105.965 65.8863H103.203L104.607 57.8203H107.369C108.099 57.8266 108.73 57.953 109.262 58.2119ZM108.186 63.8556C108.718 63.3787 109.061 62.7155 109.209 61.8691C109.246 61.6133 109.265 61.3954 109.265 61.209C109.265 60.5616 109.076 60.0626 108.705 59.7057C108.331 59.352 107.787 59.1752 107.069 59.1752H105.962L105.034 64.5725H106.141C106.973 64.5725 107.654 64.3356 108.186 63.8556Z" fill="black"/>
<path d="M113.255 65.5401C112.745 65.2495 112.352 64.8484 112.074 64.3368C111.795 63.8252 111.656 63.2378 111.656 62.5745C111.656 61.6492 111.857 60.8186 112.262 60.0796C112.664 59.3406 113.224 58.7594 113.939 58.3394C114.653 57.9194 115.454 57.7109 116.342 57.7109C117.013 57.7109 117.604 57.8531 118.111 58.1373C118.621 58.4215 119.014 58.8226 119.292 59.3342C119.571 59.8459 119.71 60.4301 119.71 61.0839C119.71 62.025 119.509 62.8619 119.11 63.6041C118.711 64.3431 118.151 64.9211 117.434 65.3411C116.716 65.7611 115.909 65.9696 115.012 65.9696C114.35 65.9727 113.762 65.8274 113.255 65.5401ZM116.741 64.0431C117.174 63.7494 117.511 63.3578 117.746 62.8588C117.984 62.3629 118.102 61.8229 118.102 61.2355C118.102 60.6038 117.928 60.108 117.582 59.7448C117.236 59.3848 116.747 59.2016 116.122 59.2016C115.566 59.2016 115.068 59.35 114.635 59.6406C114.202 59.9343 113.864 60.3259 113.626 60.8186C113.388 61.3113 113.271 61.8513 113.271 62.4356C113.271 63.0672 113.444 63.5662 113.787 63.9326C114.13 64.2989 114.616 64.4821 115.241 64.4821C115.807 64.4821 116.305 64.3368 116.741 64.0431Z" fill="black"/>
</svg>
